<mxfile modified="2024-01-10T06:17:27.645Z" host="app.diagrams.net" agent="Mozilla/5.0 (Windows NT 10.0; Win64; x64) AppleWebKit/537.36 (KHTML, like Gecko) Chrome/109.0.0.0 Safari/537.36 Edg/109.0.1518.61" etag="23VKx2IxRw1nz9aPPsKp" version="22.1.18" type="github">
  <diagram id="Ht1M8jgEwFfnCIfOTk4-" name="Page-1">
    <mxGraphModel dx="431" dy="53" grid="1" gridSize="10" guides="1" tooltips="1" connect="1" arrows="1" fold="1" page="1" pageScale="1" pageWidth="1169" pageHeight="827" math="0" shadow="0">
      <root>
        <mxCell id="0" />
        <mxCell id="1" parent="0" />
        <mxCell id="HTAtK9UQBId-LNGScgsZ-1" value="&lt;font color=&quot;#000000&quot;&gt;TIBCO MDM&lt;/font&gt;" style="points=[[0,0],[0.25,0],[0.5,0],[0.75,0],[1,0],[1,0.25],[1,0.5],[1,0.75],[1,1],[0.75,1],[0.5,1],[0.25,1],[0,1],[0,0.75],[0,0.5],[0,0.25]];outlineConnect=0;html=1;whiteSpace=wrap;fontSize=17;fontStyle=0;container=1;pointerEvents=0;collapsible=0;recursiveResize=0;shape=mxgraph.aws4.group;grIcon=mxgraph.aws4.group_corporate_data_center;strokeColor=#FF0000;fillColor=none;verticalAlign=top;align=left;spacingLeft=30;dashed=0;strokeWidth=3;" vertex="1" parent="1">
          <mxGeometry x="1400" y="1070" width="230" height="120" as="geometry" />
        </mxCell>
        <mxCell id="HTAtK9UQBId-LNGScgsZ-2" value="" style="shape=image;verticalLabelPosition=bottom;labelBackgroundColor=default;verticalAlign=top;aspect=fixed;imageAspect=0;image=data:image/png,iVBORw0KGgoAAAANSUhEUgAAAJsAAAAuCAYAAAA/ZmtKAAAAAXNSR0IArs4c6QAAAARnQU1BAACxjwv8YQUAAAAJcEhZcwAADsQAAA7EAZUrDhsAAAquSURBVHhe7Zt5UFXnGcZfuWyX5V6QC5RNQGmlKhE1MYLV1kJM3cY1qVk1Y5qO1bRT80/zT5tMJ00mTZo2k0wGJ4s145LGVh2rmZggVasyqHG3GpVNBFlkxwv3crHf851zLnc7cK7AydX5fjNnzvadw5Hz8LzLdxx1h0ECgQ4EyWuBYMQRYhPohhCbQDeE2AS6IcQm0A0hNoFuCLEJdEOITaAbQmwC3RBiE+iGEJtAN8Tc6DBxtsZKfQ7pVzkp1UjBhlF8W9DPfe1sHd191Hbb4Vx6ZTFoAWO1XguhgcpbdgpiIjtVLe3fbzQ03aKqmht8rez7gyZnu9Fqpz/vayBjqH/atNr6aNk0M80eH8X3t5e2UGn5bZoxNoJWzojlxwBe5h923fR5/7CQURQfHUw5KeGUnxWpyTGKL3TQnjPtdLHZTvVdfWRlQrGEBVFStIFyEkNpwQMmeigzQh7tTmVjD20ra6UTN3qorsNBTT19bteuzo+ljPgwebTE8Yrb/DmPVVgpMdJAYxNCaUJSuNuz7v/PIXlLGzEmM02fOlneI9rz5dcUFhYq73kTEhxCsTFmyhiTyq41yUclWtvb6fCxMn79j/NnUFio+n0ULl25SlfKKyktJZlyJ03gx3psNmpr76DmlhYyGo3U0trmPKcFTWLDC8h8t5rGhgcRfn/4I1d+j0a2ERk8ir8UoJzDupw5y7YFFqewXtl9kz4930XPTIqkVxZ/jx8DjR29NOPdKkpk98d9XE3E5X1RhslAby5KoNx0daG8tLOeTjfanc8AfG0/nxtFLy9IlA7KvL63nraz5wP4N7nS1XuH5qSFUavtDuWNi6A1THSKmCC2+CgDtbNn77FLP8hTzB9t+Yyvex0Ovh4My+hYWr5wnrxHVLR5K/t5hkGvx5icH2a7CRWUfXOGTp2/QJlMjHN/Mls+6hs4Fhc3E+Vjixc4xQmxWbu7yWazc8GNjo2lBEscP6cFTWKD83xxtl3ec+f1gy18vXpKNCWZgvm2KxNSw+kBlsMAiG3rhS56brL7i1bEFsVe8K/yYyhrdAh1yOLtYy/5bF037bx0m+93sv1D68ZQSkwI31dAKHtmSx3fhlB+PTOGZmVHOcchDF5k99nLHO/D0520cUkCFUyMdp5bt62WSqq7uYv5wsju+fhUE1XW99C3zDE7mGvvW5vuFNyhy51kYn8sdvbY2czVotm2KxBbVGQELZn/qCZn8QRi8xSgK3Cvm/UNdOL0OeqyWunhqblergMB1bIxvs4pQFCf797L77GUPas/YhqMIRcI4167xt1ix7PJTlGpMZjYgC8hAbjWmq111MTcciVzRtfrkZstKarm57Jig2nTs6leL9sVpAWmcINzDBztkzOdqkKDq/1lYTz96etb9IuHzc4/MDjdX59M4duDMdJiU1BzJaAICetFjxb6FBLCfUV1zYCCvFvU34gG/Em4tWKHNfgAeVJhliRm5FOubD7aTNe7HNzRPn46ZUChAYhZGQNHhNOpCQ1h/dVH4ngOuCwnikqu3uY/B8u+ym7uaIEEBARRw5k8gfDmzpFCaMl/j3LRuXL6/EUuNITa4RYaGJLY9MZkNPBkP9qjkPhbaRvPHRE6zREG+ag2tpW28vDti3rmlC/NiuWhvKzORtNZHoZQqwCBbjneJu8FFsjdfAExTpucw8JuBx08WioflRzx5JlzFMkSfxQRI8E9Iza46AHmKjDTn2VHykfZX2OVdAwoOZg//OOy5FSewNFeKxhNeZlGWr6nkbayNOGNr5q8HPBcPavQWE4bKEA0EFJaSpJquIZrwb3gYnAzAKcDcL67CfNaCCixIfdDRYccTFnwIiGo5z+9wavMWSlhbm0T9LZwHXK1WD9dDXmgL5CjfbA4gWawqnPp32t5RX2twUbnmuzyiH7gflXN7uHouwAhET2w/SWHuDtNZznXQMC9MO78/y7zHA8CheMNZ0HgyZAKBLjN+DfKh61AQOsjKszdZVDpIx+DoyBMugoNvH+giYfROWPCqYjla/6AlsVT2+qcbgWRWdgzvLM8keKigml+0XVeBPxxWRIvQKzsvCdwwC1PJKn27RRQIMAxjMZw+Yg6acnJXq0LFAgQh9r1Vms3F1yM2UQL5xZocielmABwwsFaIkMl4MIomrCV7Q7nAqEBCOHjE2206xv3HMnmQwB3AxxqaXYEFf8mg0xMfI99VMOF99bPk+m94kZe6Q4HEMVAS2tbO1m71WcgfF2DRUn2cT3cDa2QwUDPTKGjU+ovjiQB5Wy4D1wiOba/9YHqtLHTQXvPtvNeG/psG/LMtO6nFn4esxK/P9BMOZYQ+mxNmrPvpQVUopOLamjVOCNtKIzjz4/Zhxd2NXCX/XJdOp1iIfy5HfV83xcQafELqV6zCp4orY/lixb69YwKcLbkxATeslADgquoqqYjZSf5vlp7A0CM/9zzBX+mBIuFvi2voOyssSNWHICAcjYk+ujEozWhLHiJCFGYcUALApXjxuPtvFcGFGFebemlFj8T9UxLGB18Ook2rU7lQntnfyMXWgZ7hs/XpPIxv/t3o6rQAMbGRXv3BdVwOLzzPq3Y7ANfi9CZ/f0spyAPl5bxtS+KDx1hZuGgOT/KZ0se7+FdulrOp6lGioALowNRMCGahza0P67VS8n9lPQIZzV65Ip/oQC9NszbolBYvamG3mMihng2r0rhQn9xey0P32rgXE58f88uUICbIXdram7x6qUBtDxwbsqkiU7nK5g9k7dLMAOhJQTfDfeU2BQUcQG86MfHS8n5myXNvIL1BxQJBRtr6GhtD40zG2jXL6UZDMwqnKq3+WyLKED0T+W5FyyBDpwLDoaQ7FqEYPJ+5vRpvBkM1xsJ7imxfcXyNiTqCKXjEvtzpPWFUv4Gp4EbDTazgRwRC0CIzmXu9OTESNq/PoOLt+hwM5++Gkho+FnzM8IHrUK/C9ACQaGA6tW1KoVjHTxWxo8rMwmuIAQjb4PruTZ8h4uAEhtEhH4WwhqSd2VB0v7yjjp6lTkX3GQ+S+jhPgrYxtwlzsGN5n9QxaeRPF0OeR4KisUbr7uFXExxKV+h/Kusld4+3KI6fQUgtMRIqVINJBAy4Vz4nAj52IO5OfIZCTgWQuWsvOmqrREUCEr+BtEOJ8NSjYKdq4anz+b5iZECCjgcL0wPp/efSPZZ0UGUa3c3yHtEaZEGijEG8emt2s5e6uy547z/+odM9Nu58fJICVxfuP0m5cV4f72igOoTz/DWiiS/cjWlzxYSon5vVyKY+7hWnq59tt5eyZUVgoOD+TG7vdc5J+o5kQ6ngoCQp3n28DxRKlWwfNE8r+/j7pYhOxvcSG1u0RdqjoF74DMeCARJurIgj8KswdoHTVzQaNyqtQ4wXXVyQyYfi/sg5KLrf/hGD+/ZAbRI3p5noRcLpNDrCq7fuTSBfygJ4GAQJ9bgB3Eh9MmKRP4M/hYFipNAEFoWz8pTmetET81zLI4Bsymai2z1yhVuQoPbXa2o4o41mNCAkr8BuORwMeRPjAIZhONWuR2Cz7WTzCH8q18twG3r2uz8/xX4e63AN/e12ASBxZDDqECgFSE2gW4IsQl0Q4hNoBtCbALdEGIT6IYQm0A3hNgEuiHEJtANITaBbgixCXRDiE2gE0T/B6qEZHSj99OiAAAAAElFTkSuQmCC;" vertex="1" parent="HTAtK9UQBId-LNGScgsZ-1">
          <mxGeometry x="40" y="40" width="155" height="46" as="geometry" />
        </mxCell>
      </root>
    </mxGraphModel>
  </diagram>
</mxfile>
